<svg width="112" height="60" viewBox="0 0 112 60" fill="none" xmlns="http://www.w3.org/2000/svg">
<path d="M81.7822 10.782C81.8193 10.7928 81.9353 10.8376 81.9532 10.8671C82.3156 11.4535 84.0967 15.4723 83.746 15.8607C83.5449 15.8266 82.9525 15.2733 82.7608 15.1073C82.7596 15.6023 82.8936 16.7596 82.9451 17.2731L83.5227 22.6745C83.689 24.1896 83.9069 25.7942 83.9675 27.3135C84.0397 29.1356 83.6137 32.3836 81.5471 33.0229C81.0183 33.1869 80.4462 33.1305 79.9589 32.8663C79.2907 32.5081 78.928 31.855 78.7112 31.152C78.0813 32.4163 76.836 33.5842 75.3107 33.2255C73.5803 32.8186 73.7194 31.0507 74.0294 29.6776C73.626 29.8462 73.0727 30.173 72.6654 30.3828C70.8729 31.3057 68.7048 32.671 66.6734 32.8421C64.7076 33.0077 62.9394 32.1833 61.4722 30.9324C60.0535 31.8693 58.1021 33.2382 56.355 33.0699C52.9837 32.7451 53.113 28.0284 52.985 25.5318C52.8378 22.6614 52.7802 19.8755 52.4923 17.0354C52.3932 16.0816 52.2448 15.1336 52.0475 14.1954C51.9426 13.6818 51.5625 13.0525 51.6351 12.5822C51.6757 12.3183 51.9116 11.2009 52.1228 10.9862C52.1655 10.9427 52.1952 10.9638 52.2564 10.9734C52.5105 11.1647 52.6891 11.797 52.7925 12.1032C53.4975 14.1921 53.6428 16.485 53.7675 18.6732C53.882 20.6827 53.926 22.7126 54.0445 24.7216C54.1275 26.1296 54.2142 28.0085 54.6208 29.3488C55.6365 31.9507 58.4926 30.9379 60.1566 29.6903C59.6095 29.1117 58.1799 28.1118 57.3902 28.3927C57.1864 28.4652 56.5788 28.6756 56.4233 28.6457C56.2843 28.126 57.0372 26.7021 57.5422 26.4359C60.1613 25.0556 63.5728 25.0417 66.1685 26.4999C66.7671 26.8364 66.3493 27.9467 66.0115 28.3668C65.364 28.936 64.1683 29.3816 63.3888 29.7858C63.9277 30.2408 64.6338 30.5386 65.3035 30.7201C67.3982 31.2876 69.8514 29.9313 71.7067 29.0561C72.3885 28.7345 73.4706 28.2799 74.102 27.8961C72.6166 27.5803 71.1545 27.2698 69.6315 27.2758C68.8376 27.279 68.0023 27.2562 67.2119 27.1955C67.3193 26.7981 67.759 25.8217 68.0425 25.5684C69.0325 24.6832 71.2139 25.3077 72.3077 25.5532C74.96 26.1487 77.5452 26.33 80.2385 26.3139C80.0409 26.8815 79.8304 27.5638 79.4512 28.0274C78.689 28.2947 77.7213 28.2452 76.9379 28.5237C76.2534 28.7671 75.4673 28.9241 74.8659 29.3438C74.7167 29.4481 74.6507 29.7392 74.6538 29.9115C74.6613 30.2655 74.8093 30.6017 75.065 30.8444C75.3833 31.1411 75.8918 31.2751 76.3069 31.239C77.6026 31.1261 78.2321 30.2267 78.9932 29.3016C79.1146 29.1536 79.3267 28.9527 79.5274 28.9435C79.6996 29.0615 79.607 29.8464 79.7234 30.1985C80.0026 31.439 82.5316 31.1291 82.7542 30.2037C82.9744 29.2877 82.6229 26.9711 82.521 26.0291L81.9626 20.7643L81.4885 15.6987C81.387 14.6445 81.4608 13.9386 81.0418 12.9486C81.1109 12.384 81.4581 11.232 81.7822 10.782ZM61.9545 28.6851L62.3575 28.4943C62.8054 28.2508 63.1952 28.058 63.5876 27.7228C63.0522 27.4962 62.1115 27.3222 61.5382 27.3594C61.1747 27.3844 60.7291 27.4027 60.3733 27.4432C60.8377 27.8863 61.3933 28.3698 61.9545 28.6851Z" fill="#285A48"/>
<path d="M41.495 16.8032C42.3211 16.7252 42.9237 17.0053 43.0551 17.9046C43.1591 18.6278 42.9796 19.3634 42.5546 19.9555C42.0197 19.1958 42.008 18.3838 40.7424 19.0886C39.4679 19.823 38.2917 21.2539 37.7294 22.606C37.2833 23.6785 39.018 24.1339 39.705 24.2985C41.7768 24.7951 43.9127 25.0633 43.0916 27.8706C42.545 29.7397 40.4275 30.6342 38.8722 31.4753C38.9818 34.1646 40.6991 35.6024 43.296 34.6368C43.8124 34.44 44.3083 34.1925 44.7766 33.8979C45.9052 33.1895 49.2785 30.5893 49.8058 29.4301C48.8142 28.0839 45.9977 29.3838 45.1641 27.5583C44.4922 26.0868 46.3086 22.7079 48.1356 23.6262C50.5068 24.8181 51.0213 28.4441 50.1194 30.7239C49.5873 32.0654 48.3363 33.1624 47.2808 34.1023C45.3693 35.6788 42.9295 37.7411 40.3367 36.6694C39.9656 36.4874 39.6316 36.2369 39.3519 35.931C38.2527 34.7382 38.2585 33.2489 38.3125 31.719L37.0475 32.2554C34.1322 33.4606 29.8372 34.5854 26.7904 33.7878C22.4307 32.6465 22.7254 27.448 24.1549 24.1399C24.272 23.869 24.6853 22.8975 24.9646 22.7844L25.0194 22.8199C24.9311 23.3367 24.6935 23.9383 24.5102 24.442C24.0992 25.5709 23.8477 26.7127 23.9447 27.9246C24.0387 29.0998 24.4625 30.0209 25.3456 30.7998C26.7032 31.9972 29.1019 32.0036 30.8221 31.8628C32.7799 31.7026 35.2294 31.0539 37.0855 30.3553C37.3431 30.2583 38.1234 29.95 38.3041 29.7702C38.631 29.4448 38.7381 28.9793 39.0902 28.5557C39.0487 28.9415 38.9468 29.2438 38.8297 29.6093C39.6961 29.2712 41.7131 28.1641 42.2456 27.4496C41.1822 26.2437 37.1309 26.5748 36.6924 24.6044C36.1547 22.1886 39.2088 17.3994 41.495 16.8032ZM47.7543 26.5746C47.9504 26.5881 48.1321 26.5987 48.3285 26.6033C48.0536 25.9116 47.6674 25.47 46.8728 25.503C46.6119 25.5837 46.2051 25.8328 46.2406 26.146C46.4042 26.4862 47.3999 26.5611 47.7543 26.5746Z" fill="#285A48"/>
<path d="M86.0005 10.9412C86.0418 10.9547 86.0735 10.9686 86.1067 10.9984C86.4199 11.2809 87.6617 14.4446 87.821 14.9723C87.9331 15.3439 88.0022 15.7036 88.0174 16.0927C87.6652 15.8904 87.3278 15.6135 87.0126 15.3587C87.0552 16.2756 87.1798 17.3539 87.263 18.2781L87.9417 25.1813C88.199 27.8357 88.5184 29.6942 87.8144 32.352C87.7191 32.6506 87.4406 33.6641 87.1103 33.7186C87.0923 33.6976 87.0743 33.6765 87.0568 33.6554C87.0134 32.8694 87.1204 31.6161 87.0798 30.8836C86.9908 29.286 86.8268 27.6996 86.6698 26.1296L85.8513 17.9626C85.7169 16.5072 85.7361 14.2617 85.2925 12.9868C85.3842 12.5556 85.7607 11.2777 86.0005 10.9412Z" fill="#285A48"/>
<path d="M78.6191 11.0069C78.6468 11.0201 78.6515 11.0361 78.6741 11.0656C78.6452 11.3734 78.2422 12.1508 77.9529 12.276C77.5483 12.451 77.1 12.6138 76.6845 12.771C75.8203 13.0933 74.9596 13.4251 74.1028 13.7663L55.64 21.2022L55.5884 21.1616C55.6181 20.8916 55.9989 19.9662 56.2488 19.8488C58.3583 18.8578 60.5338 18.0327 62.6914 17.1623C67.9816 15.0604 73.291 13.0085 78.6191 11.0069Z" fill="#285A48"/>
<path d="M68.7611 18.8513C69.3371 18.8114 71.185 18.7589 71.5786 19.2292C72.0238 19.7615 70.8714 21.2171 70.4199 21.605C70.2192 21.7785 69.9955 21.9232 69.7553 22.035C69.4585 22.175 67.3869 22.8653 67.2342 22.6754L67.3123 22.5735C68.0375 21.9673 69.6999 21.3839 70.3723 20.7019C69.3804 20.4421 68.1253 20.4715 67.1014 20.5852C67.2658 20.2099 67.4685 19.7108 67.7133 19.3855C68.0347 18.9589 68.2862 18.9161 68.7611 18.8513Z" fill="#285A48"/>
<path d="M31.8286 34.9749C32.0411 35.0521 33.5848 35.9866 33.6089 36.168C33.6548 36.5129 33.0481 37.5496 32.8127 37.8713C32.1986 37.4358 31.6768 37.0796 31.0398 36.6781C30.9089 36.9402 30.479 37.9273 30.2878 38.0251C29.7096 37.5765 29.0447 37.2377 28.4654 36.7611C28.5496 36.4746 29.1579 35.1049 29.4254 35.066C29.6806 35.1882 30.7985 36.064 31.0802 36.2773C31.3461 35.8878 31.5495 35.3202 31.8286 34.9749Z" fill="#285A48"/>
<path d="M76.8926 14.7989L76.9801 14.836C77.0785 14.9738 77.0933 15.1003 77.1562 15.2613C77.4893 16.1173 78.0013 17.3223 77.2406 18.107C76.7489 18.6143 76.2791 18.0304 75.957 17.655C75.7598 18.0346 75.6746 18.2261 75.329 18.4711C73.956 18.6408 74.1142 17.498 74.095 16.4732C73.9849 16.3727 73.9724 16.5141 73.8025 16.4542C73.6682 16.089 73.9747 15.2953 74.4195 15.2416C74.6417 15.9533 74.4629 16.5516 74.639 17.2268C74.8803 17.8705 75.4462 17.6263 75.6633 17.1056C75.9164 16.4997 75.3892 16.0357 75.5438 15.4076C75.5883 15.228 75.5934 15.1277 75.7605 15.0439L75.8425 15.0855C76.1026 15.4203 76.2092 16.3779 76.3303 16.8125C76.5986 17.7743 77.5467 17.408 77.0024 16.4618C76.7138 15.9605 76.6708 15.3553 76.8926 14.7989Z" fill="#285A48"/>
<path d="M48.1847 15.6547C49.1785 15.5685 49.2583 16.4435 48.9358 17.1757C48.7283 17.0121 48.488 16.7057 48.2166 16.6735C47.5434 16.5937 47.4939 19.824 47.0126 20.2199C46.9238 20.2152 46.8781 20.206 46.8358 20.1132C46.521 19.4232 46.476 18.3956 45.8588 17.8667L45.8277 17.8403C45.6616 17.7863 45.5943 17.8929 45.3827 17.8565C44.9954 17.79 44.8318 17.6871 44.6073 17.3722C44.5742 16.9515 44.9315 15.9269 45.5107 16.2456C46.3397 16.7017 46.7274 17.9131 47.055 18.751C47.26 17.7536 47.3718 16.3079 48.1847 15.6547Z" fill="#285A48"/>
<path d="M29.6527 15.7708C30.5645 15.7881 30.5232 16.6011 30.2635 17.2482C30.1071 17.1304 29.876 16.8433 29.6741 16.8105C28.7545 16.6608 28.8961 20.4294 28.2255 20.2379C27.9436 19.7618 27.6815 18.1739 27.1125 17.9659C26.6288 18.0229 25.8253 17.7387 26.0151 17.1069C26.4489 15.6629 27.1781 16.3769 27.7305 17.2296C28.0669 17.7488 28.1814 18.3172 28.412 18.8758C28.5995 17.9504 28.6782 16.1682 29.6527 15.7708Z" fill="#285A48"/>
<path d="M28.2705 20.3487C29.0081 20.5953 30.7493 21.8211 29.397 22.478C28.7017 22.8158 28.2555 22.4604 27.6046 23.2551C27.6677 23.9669 27.8719 24.5774 28.0376 25.2685C28.2141 25.9771 28.2935 26.7068 28.2738 27.4372C28.2286 27.5782 28.2081 27.7072 28.0417 27.7393C27.9037 26.2996 26.7951 23.756 27.4383 22.5267C27.7422 21.9459 28.3724 21.9135 28.5276 21.6094L28.5006 21.534C28.1333 21.3526 27.7958 21.5974 27.5497 21.8416C27.594 21.1691 27.7079 20.7481 28.2705 20.3487Z" fill="#285A48"/>
<path d="M56.2574 10.9741C56.8927 11.1735 57.9264 12.7987 58.1572 13.4247C58.6973 14.8896 58.6563 16.2323 58.0404 17.6587L57.9944 17.6756C57.9385 17.5915 58.0237 17.3683 58.0483 17.2301C58.3197 15.6942 57.8237 14.3462 56.8744 13.1495C56.6159 12.8236 56.1543 12.3537 55.9497 12.0485L55.9282 12.0163C56.016 11.6188 56.1129 11.3516 56.2574 10.9741Z" fill="#285A48"/>
<path d="M61.3867 32.928C61.5609 32.9314 61.6491 32.9554 61.7491 33.1042C61.7901 33.3105 61.7596 33.4229 61.6839 33.6192C61.4722 33.8072 60.9505 33.5494 60.7267 33.8513C60.7252 34.0894 60.9845 34.3073 61.2133 34.3228C61.7878 34.3618 62.1361 33.9605 62.5364 33.6152C62.3548 34.3953 62.297 34.3652 61.6741 34.896C59.6294 36.6383 60.5346 37.0102 62.6445 36.648C63.0405 36.5533 63.2678 36.4482 63.6368 36.2848C63.1518 36.8827 62.5196 37.2726 61.7678 37.3754C59.5302 37.6815 59.9586 36.2683 60.8419 35.0332C60.6713 34.9751 60.3831 34.8963 60.2956 34.7292C59.9313 34.033 60.8806 33.2181 61.3867 32.928Z" fill="#285A48"/>
<path d="M71.5114 33.4213C71.9433 33.4314 73.0438 34.3511 73.373 34.6352C73.2148 35.1109 72.7833 35.8301 72.542 36.3147C72.2495 36.1928 70.894 35.2421 70.6328 35.0103C70.8749 34.4149 71.1318 33.9356 71.5114 33.4213Z" fill="#285A48"/>
<path d="M76.5123 20.5499C76.9598 20.6673 77.9876 21.4248 78.3203 21.7466C78.2008 22.264 77.7603 23.0471 77.4667 23.494C76.8719 23.0368 76.155 22.6411 75.6192 22.198C75.8836 21.5267 76.0983 21.1354 76.5123 20.5499Z" fill="#285A48"/>
<path d="M50.7966 33.6934C51.0393 33.7224 51.3641 33.8406 51.4164 34.0893C51.6798 35.3405 50.2452 36.749 49.3063 37.1381C49.4329 37.0083 49.6021 36.8676 49.7404 36.7462C50.066 36.4394 51.4121 35.0039 50.5936 34.6232C50.4695 34.5655 50.0674 34.7819 49.9286 34.8467C49.6645 34.5947 50.1886 34.0438 50.3659 33.8651C50.4922 33.7378 50.6266 33.7154 50.7966 33.6934Z" fill="#285A48"/>
<path d="M62.0373 20.9894C62.1072 20.998 62.2954 21.0164 62.3532 21.0327C62.2911 21.3367 62.1076 22.8194 62.7078 22.8323C62.932 22.8371 63.2834 22.2459 63.433 22.0256C63.3557 22.5968 63.2576 23.3273 62.7363 23.6796C62.4423 23.8785 62.1572 23.6322 62.0154 23.3709C61.6077 22.62 61.8256 21.7606 62.0373 20.9894Z" fill="#285A48"/>
<path d="M62.0373 20.9894C62.2404 20.3525 62.4169 19.799 62.8726 19.2893C62.6969 19.8176 62.4426 20.4993 62.3532 21.0327C62.2954 21.0164 62.1072 20.998 62.0373 20.9894Z" fill="#285A48"/>
<path d="M28.0417 27.7393C28.2081 27.7072 28.2286 27.5782 28.2738 27.4372C28.2741 27.9875 28.2468 28.4736 28.1423 29.0166C28.1088 28.6487 28.0492 28.1001 28.0417 27.7393Z" fill="#285A48"/>
<path d="M6.66232 52.4501C6.22551 52.4501 5.83017 52.3699 5.4763 52.2096C5.12243 52.0492 4.8432 51.8253 4.63862 51.5378C4.43404 51.2503 4.33175 50.9213 4.33175 50.5508C4.33175 50.4347 4.34005 50.2827 4.35663 50.0947C4.37875 49.9011 4.40363 49.6883 4.43128 49.456C4.46445 49.2183 4.50039 48.9805 4.5391 48.7428C4.5778 48.4995 4.61374 48.27 4.64692 48.0544L5.28554 48.1539C5.22472 48.5354 5.16943 48.8893 5.11967 49.2155C5.07543 49.5362 5.03949 49.8127 5.01185 50.0449C4.98973 50.2716 4.97867 50.4402 4.97867 50.5508C4.97867 50.8052 5.04779 51.0291 5.18602 51.2226C5.32978 51.4217 5.52883 51.5765 5.78317 51.6871C6.03751 51.8032 6.33056 51.8613 6.66232 51.8613C6.99407 51.8613 7.27882 51.8087 7.51658 51.7037C7.75434 51.5986 7.9368 51.4521 8.06397 51.2641C8.19114 51.0761 8.25473 50.8549 8.25473 50.6006V46.2463H8.90165V50.6006C8.90165 50.9876 8.79936 51.3194 8.59478 51.5959C8.39572 51.8723 8.12756 52.0824 7.79028 52.2262C7.45299 52.3755 7.07701 52.4501 6.66232 52.4501ZM8.90165 50.3932V49.8044H13.2061L12.609 50.3435V48.3944C12.609 48.0461 12.5592 47.7586 12.4597 47.5319C12.3657 47.2997 12.2219 47.1255 12.0284 47.0094C11.8404 46.8933 11.6027 46.8352 11.3151 46.8352C11.0719 46.8352 10.8452 46.8767 10.6351 46.9596C10.4305 47.037 10.2397 47.1421 10.0628 47.2748C9.88585 47.4019 9.71997 47.5457 9.56515 47.7061C9.41586 47.8609 9.27763 48.0185 9.15046 48.1788C9.02329 48.3391 8.90718 48.4857 8.80212 48.6184L8.58648 48.0295C8.72471 47.8581 8.86294 47.6867 9.00117 47.5153C9.14493 47.3439 9.29422 47.1835 9.44904 47.0343C9.60386 46.8794 9.7725 46.744 9.95496 46.6279C10.143 46.5117 10.3475 46.4205 10.5687 46.3542C10.7899 46.2823 11.0387 46.2463 11.3151 46.2463C11.7077 46.2463 12.0284 46.3127 12.2772 46.4454C12.5316 46.5781 12.7279 46.755 12.8661 46.9762C13.0099 47.1918 13.1094 47.4241 13.1647 47.6729C13.22 47.9217 13.2476 48.1622 13.2476 48.3944V50.3932H8.90165ZM10.5189 45.5082V44.7617H11.1659V45.5082H10.5189ZM15.3161 50.3932V49.8044H16.328V50.3932H15.3161ZM14.6775 50.3932V44.4466H15.3161V50.3932H14.6775ZM16.328 50.3932V49.8044C16.3612 49.8044 16.3888 49.8127 16.4109 49.8293C16.433 49.8403 16.4496 49.8597 16.4607 49.8873C16.4717 49.9094 16.48 49.9399 16.4856 49.9786C16.4911 50.0117 16.4939 50.0504 16.4939 50.0947C16.4939 50.1389 16.4911 50.1804 16.4856 50.2191C16.48 50.2578 16.4717 50.291 16.4607 50.3186C16.4496 50.3407 16.433 50.3601 16.4109 50.3767C16.3888 50.3877 16.3612 50.3932 16.328 50.3932ZM16.3273 50.3932V49.8044H17.5216L17.2231 50.0449V46.2463H17.87V50.3932H16.3273ZM16.3273 50.3932C16.2942 50.3932 16.2665 50.3877 16.2444 50.3767C16.2223 50.3601 16.2057 50.3407 16.1946 50.3186C16.1836 50.291 16.1753 50.2578 16.1698 50.2191C16.1642 50.1804 16.1615 50.1389 16.1615 50.0947C16.1615 50.0339 16.167 49.9841 16.178 49.9454C16.1836 49.9011 16.2002 49.868 16.2278 49.8459C16.2499 49.8182 16.2831 49.8044 16.3273 49.8044V50.3932ZM16.6591 51.8861V51.1397H17.306V51.8861H16.6591ZM17.7953 51.8861V51.1397H18.4423V51.8861H17.7953ZM20.6292 50.3932V49.8044H21.6908V50.3932H20.6292ZM19.2773 52.2262C19.2054 52.2262 19.1308 52.2207 19.0533 52.2096C18.9704 52.2041 18.8902 52.1985 18.8128 52.193L18.8875 51.6041C18.9649 51.6097 19.0368 51.6152 19.1031 51.6207C19.1695 51.6318 19.2275 51.6373 19.2773 51.6373C19.5372 51.6373 19.7473 51.5378 19.9076 51.3387C20.068 51.1452 20.1481 50.8743 20.1481 50.526V46.2463H20.795V50.526C20.795 50.8632 20.7287 51.159 20.596 51.4134C20.4688 51.6733 20.2919 51.8723 20.0652 52.0105C19.8385 52.1543 19.5759 52.2262 19.2773 52.2262ZM21.6908 50.3932V49.8044C21.724 49.8044 21.7516 49.8127 21.7737 49.8293C21.7958 49.8403 21.8124 49.8597 21.8235 49.8873C21.8345 49.9094 21.8428 49.9399 21.8484 49.9786C21.8539 50.0117 21.8567 50.0504 21.8567 50.0947C21.8567 50.1389 21.8539 50.1804 21.8484 50.2191C21.8428 50.2578 21.8345 50.291 21.8235 50.3186C21.8124 50.3407 21.7958 50.3601 21.7737 50.3767C21.7516 50.3877 21.724 50.3932 21.6908 50.3932ZM22.6927 50.3932V44.4466H23.3396V50.3932H22.6927ZM21.6892 50.3932V49.8044H22.6927V50.3932H21.6892ZM21.6892 50.3932C21.656 50.3932 21.6283 50.3877 21.6062 50.3767C21.5841 50.3601 21.5675 50.3407 21.5565 50.3186C21.5454 50.291 21.5371 50.2578 21.5316 50.2191C21.526 50.1804 21.5233 50.1389 21.5233 50.0947C21.5233 50.0339 21.5288 49.9841 21.5399 49.9454C21.5454 49.9011 21.562 49.868 21.5896 49.8459C21.6118 49.8182 21.6449 49.8044 21.6892 49.8044V50.3932ZM25.408 50.3932V49.8044H26.4199V50.3932H25.408ZM24.7694 50.3932V44.4466H25.408V50.3932H24.7694ZM26.4199 50.3932V49.8044C26.4531 49.8044 26.4807 49.8127 26.5028 49.8293C26.5249 49.8403 26.5415 49.8597 26.5526 49.8873C26.5636 49.9094 26.5719 49.9399 26.5775 49.9786C26.583 50.0117 26.5858 50.0504 26.5858 50.0947C26.5858 50.1389 26.583 50.1804 26.5775 50.2191C26.5719 50.2578 26.5636 50.291 26.5526 50.3186C26.5415 50.3407 26.5249 50.3601 26.5028 50.3767C26.4807 50.3877 26.4531 50.3932 26.4199 50.3932ZM26.4192 50.3932V49.8044H27.6135L27.315 50.0449V46.2463H27.9619V50.3932H26.4192ZM26.4192 50.3932C26.3861 50.3932 26.3584 50.3877 26.3363 50.3767C26.3142 50.3601 26.2976 50.3407 26.2865 50.3186C26.2755 50.291 26.2672 50.2578 26.2616 50.2191C26.2561 50.1804 26.2534 50.1389 26.2534 50.0947C26.2534 50.0339 26.2589 49.9841 26.2699 49.9454C26.2755 49.9011 26.2921 49.868 26.3197 49.8459C26.3418 49.8182 26.375 49.8044 26.4192 49.8044V50.3932ZM27.315 51.8861V51.1397H27.9619V51.8861H27.315ZM35.3544 50.3932V49.8044H36.2501V50.3932H35.3544ZM33.1151 52.4501C32.6783 52.4501 32.2829 52.3699 31.929 52.2096C31.5752 52.0492 31.296 51.8253 31.0914 51.5378C30.8868 51.2503 30.7845 50.9213 30.7845 50.5508C30.7845 50.4347 30.7928 50.2827 30.8094 50.0947C30.8315 49.9011 30.8564 49.6883 30.884 49.456C30.9172 49.2183 30.9531 48.9805 30.9918 48.7428C31.0305 48.4995 31.0665 48.27 31.0997 48.0544L31.7383 48.1539C31.6775 48.5354 31.6222 48.8893 31.5724 49.2155C31.5282 49.5362 31.4922 49.8127 31.4646 50.0449C31.4425 50.2716 31.4314 50.4402 31.4314 50.5508C31.4314 50.8052 31.5005 51.0291 31.6388 51.2226C31.7825 51.4217 31.9816 51.5765 32.2359 51.6871C32.4903 51.8032 32.7833 51.8613 33.1151 51.8613C33.4468 51.8613 33.7316 51.8087 33.9693 51.7037C34.2071 51.5986 34.3895 51.4521 34.5167 51.2641C34.6439 51.0761 34.7075 50.8549 34.7075 50.6006V44.4466H35.3544V50.6006C35.3544 50.9876 35.2521 51.3194 35.0475 51.5959C34.8485 51.8723 34.5803 52.0824 34.243 52.2262C33.9057 52.3755 33.5298 52.4501 33.1151 52.4501ZM36.2501 50.3932V49.8044C36.2833 49.8044 36.3109 49.8127 36.3331 49.8293C36.3552 49.8403 36.3718 49.8597 36.3828 49.8873C36.3939 49.9094 36.4022 49.9399 36.4077 49.9786C36.4132 50.0117 36.416 50.0504 36.416 50.0947C36.416 50.1389 36.4132 50.1804 36.4077 50.2191C36.4022 50.2578 36.3939 50.291 36.3828 50.3186C36.3718 50.3407 36.3552 50.3601 36.3331 50.3767C36.3109 50.3877 36.2833 50.3932 36.2501 50.3932ZM40.9545 50.3932V49.8044H41.8503V50.3932H40.9545ZM36.2519 50.3932C36.2188 50.3932 36.1911 50.3877 36.169 50.3767C36.1469 50.3601 36.1303 50.3407 36.1192 50.3186C36.1082 50.291 36.0999 50.2578 36.0944 50.2191C36.0888 50.1804 36.0861 50.1389 36.0861 50.0947C36.0861 50.0339 36.0916 49.9841 36.1026 49.9454C36.1082 49.9011 36.1248 49.868 36.1524 49.8459C36.1745 49.8182 36.2077 49.8044 36.2519 49.8044V50.3932ZM36.2519 50.3932V49.8044H40.7887L40.3076 50.1444V48.3613C40.3076 47.9742 40.2634 47.6701 40.1749 47.4489C40.0864 47.2278 39.9344 47.0702 39.7188 46.9762C39.5086 46.8822 39.2211 46.8352 38.8562 46.8352C38.624 46.8352 38.3917 46.8518 38.1595 46.885C37.9328 46.9181 37.7559 46.9624 37.6287 47.0177L38.0185 46.6196C37.9853 46.7523 37.9522 46.9209 37.919 47.1255C37.8858 47.3245 37.8582 47.5402 37.8361 47.7724C37.8139 48.0046 37.8029 48.2369 37.8029 48.4691C37.8029 48.7068 37.8139 48.9391 37.8361 49.1658C37.8582 49.3925 37.8831 49.5887 37.9107 49.7546C37.9383 49.9205 37.9605 50.0366 37.9771 50.103L37.3633 50.2771C37.3412 50.2053 37.3135 50.0808 37.2804 49.9039C37.2527 49.727 37.2251 49.5141 37.1974 49.2653C37.1753 49.0165 37.1643 48.7511 37.1643 48.4691C37.1643 48.1982 37.1753 47.9355 37.1974 47.6812C37.2251 47.4213 37.2555 47.1863 37.2887 46.9762C37.3274 46.7661 37.3633 46.5974 37.3965 46.4703C37.5181 46.4205 37.7116 46.3707 37.9771 46.321C38.2425 46.2712 38.5355 46.2463 38.8562 46.2463C39.3207 46.2463 39.7077 46.3155 40.0173 46.4537C40.3325 46.5919 40.5675 46.8158 40.7223 47.1255C40.8771 47.4296 40.9545 47.8415 40.9545 48.3613V50.3932H36.2519ZM41.8503 50.3932V49.8044C41.8834 49.8044 41.9111 49.8127 41.9332 49.8293C41.9553 49.8403 41.9719 49.8597 41.983 49.8873C41.994 49.9094 42.0023 49.9399 42.0078 49.9786C42.0134 50.0117 42.0161 50.0504 42.0161 50.0947C42.0161 50.1389 42.0134 50.1804 42.0078 50.2191C42.0023 50.2578 41.994 50.291 41.983 50.3186C41.9719 50.3407 41.9553 50.3601 41.9332 50.3767C41.9111 50.3877 41.8834 50.3932 41.8503 50.3932ZM41.8486 50.3932V49.8044H42.96C43.2918 49.8044 43.6097 49.7519 43.9138 49.6468C44.2179 49.5362 44.4971 49.3925 44.7515 49.2155C45.0058 49.0331 45.227 48.834 45.415 48.6184C45.603 48.3972 45.7495 48.1733 45.8546 47.9466C45.9596 47.7199 46.0121 47.507 46.0121 47.3079V46.8103L46.3605 47.3328C46.0398 47.167 45.7246 47.0425 45.415 46.9596C45.1054 46.8767 44.804 46.8352 44.511 46.8352C44.2179 46.8352 43.9166 46.8767 43.6069 46.9596C43.2973 47.0425 42.9849 47.167 42.6697 47.3328L43.0181 46.8103V47.3079C43.0181 47.507 43.0706 47.7199 43.1757 47.9466C43.2807 48.1733 43.4245 48.3972 43.6069 48.6184C43.7949 48.834 44.0161 49.0331 44.2704 49.2155C44.5248 49.3925 44.804 49.5362 45.1081 49.6468C45.4122 49.7519 45.7302 49.8044 46.0619 49.8044H47.1235V50.3932H46.0619C45.6306 50.3932 45.227 50.3241 44.851 50.1859C44.475 50.0477 44.135 49.8652 43.8309 49.6385C43.5268 49.4063 43.2641 49.1547 43.043 48.8838C42.8273 48.6073 42.6614 48.3336 42.5453 48.0627C42.4292 47.7862 42.3712 47.5346 42.3712 47.3079V46.8103C42.6089 46.6831 42.8494 46.5781 43.0927 46.4952C43.336 46.4122 43.5765 46.3514 43.8143 46.3127C44.0576 46.2685 44.2898 46.2463 44.511 46.2463C44.7377 46.2463 44.9699 46.2685 45.2076 46.3127C45.4454 46.3514 45.6859 46.4122 45.9292 46.4952C46.1725 46.5781 46.413 46.6831 46.6508 46.8103V47.3079C46.6508 47.5346 46.5927 47.7862 46.4766 48.0627C46.3605 48.3336 46.1918 48.6073 45.9707 48.8838C45.755 49.1547 45.4952 49.4063 45.1911 49.6385C44.887 49.8652 44.5469 50.0477 44.1709 50.1859C43.7949 50.3241 43.3913 50.3932 42.96 50.3932H41.8486ZM41.8486 50.3932C41.8155 50.3932 41.7878 50.3877 41.7657 50.3767C41.7436 50.3601 41.727 50.3407 41.7159 50.3186C41.7049 50.291 41.6966 50.2578 41.6911 50.2191C41.6855 50.1804 41.6828 50.1389 41.6828 50.0947C41.6828 50.0339 41.6883 49.9841 41.6994 49.9454C41.7049 49.9011 41.7215 49.868 41.7491 49.8459C41.7712 49.8182 41.8044 49.8044 41.8486 49.8044V50.3932ZM47.1235 50.3932V49.8044C47.1567 49.8044 47.1843 49.8127 47.2065 49.8293C47.2286 49.8403 47.2452 49.8597 47.2562 49.8873C47.2673 49.9094 47.2756 49.9399 47.2811 49.9786C47.2866 50.0117 47.2894 50.0504 47.2894 50.0947C47.2894 50.1389 47.2866 50.1804 47.2811 50.2191C47.2756 50.2578 47.2673 50.291 47.2562 50.3186C47.2452 50.3407 47.2286 50.3601 47.2065 50.3767C47.1843 50.3877 47.1567 50.3932 47.1235 50.3932ZM48.664 50.3932V49.8044H49.5598V50.3932H48.664ZM49.5598 50.3932V49.8044C49.5929 49.8044 49.6206 49.8127 49.6427 49.8293C49.6648 49.8403 49.6814 49.8597 49.6925 49.8873C49.7035 49.9094 49.7118 49.9399 49.7173 49.9786C49.7229 50.0117 49.7256 50.0504 49.7256 50.0947C49.7256 50.1389 49.7229 50.1804 49.7173 50.2191C49.7118 50.2578 49.7035 50.291 49.6925 50.3186C49.6814 50.3407 49.6648 50.3601 49.6427 50.3767C49.6206 50.3877 49.5929 50.3932 49.5598 50.3932ZM47.1214 50.3932C47.0882 50.3932 47.0606 50.3877 47.0384 50.3767C47.0163 50.3601 46.9997 50.3407 46.9887 50.3186C46.9776 50.291 46.9693 50.2578 46.9638 50.2191C46.9583 50.1804 46.9555 50.1389 46.9555 50.0947C46.9555 50.0339 46.961 49.9841 46.9721 49.9454C46.9776 49.9011 46.9942 49.868 47.0219 49.8459C47.044 49.8182 47.0771 49.8044 47.1214 49.8044V50.3932ZM47.1214 50.3932V49.8044H48.3157L48.0171 50.0449V46.2463H48.664V50.3932H47.1214ZM47.4531 45.4999V44.7535H48.1V45.4999H47.4531ZM48.5894 45.4999V44.7535H49.2363V45.4999H48.5894ZM55.7963 50.3932V49.8044H56.692V50.3932H55.7963ZM49.5593 50.3932C49.5261 50.3932 49.4985 50.3877 49.4764 50.3767C49.4543 50.3601 49.4377 50.3407 49.4266 50.3186C49.4155 50.291 49.4073 50.2578 49.4017 50.2191C49.3962 50.1804 49.3934 50.1389 49.3934 50.0947C49.3934 50.0339 49.399 49.9841 49.41 49.9454C49.4155 49.9011 49.4321 49.868 49.4598 49.8459C49.4819 49.8182 49.5151 49.8044 49.5593 49.8044V50.3932ZM53.9219 50.3932C53.7339 50.3932 53.5486 50.3573 53.3662 50.2854C53.1892 50.2136 53.0178 50.1002 52.852 49.9454L53.2749 49.5058C53.4021 49.6109 53.5155 49.6883 53.615 49.738C53.7145 49.7823 53.8168 49.8044 53.9219 49.8044H55.3982L55.1493 50.0698V48.0876C55.1493 47.988 55.1383 47.847 55.1162 47.6646C55.0996 47.4821 55.0719 47.2775 55.0332 47.0508C55.0001 46.8186 54.9586 46.5864 54.9088 46.3542L55.5392 46.2463C55.5779 46.4399 55.6166 46.6555 55.6553 46.8933C55.694 47.131 55.7271 47.3577 55.7548 47.5734C55.7824 47.7835 55.7963 47.9549 55.7963 48.0876V50.3932H53.9219ZM49.5593 50.3932V49.8044H50.7702L50.6043 49.9703V47.0757H51.243V50.3932H49.5593ZM51.243 50.3932V49.8044H52.1802C52.3681 49.8044 52.5091 49.7767 52.6031 49.7215C52.7027 49.6662 52.7718 49.5556 52.8105 49.3897C52.8492 49.2238 52.8685 48.9805 52.8685 48.6598V46.661H53.5155V48.6598C53.5155 49.0911 53.4685 49.4339 53.3745 49.6883C53.286 49.9426 53.145 50.1251 52.9515 50.2357C52.758 50.3407 52.5008 50.3932 52.1802 50.3932H51.243ZM56.692 50.3932V49.8044C56.7252 49.8044 56.7528 49.8127 56.7749 49.8293C56.797 49.8403 56.8136 49.8597 56.8247 49.8873C56.8358 49.9094 56.844 49.9399 56.8496 49.9786C56.8551 50.0117 56.8579 50.0504 56.8579 50.0947C56.8579 50.1389 56.8551 50.1804 56.8496 50.2191C56.844 50.2578 56.8358 50.291 56.8247 50.3186C56.8136 50.3407 56.797 50.3601 56.7749 50.3767C56.7528 50.3877 56.7252 50.3932 56.692 50.3932ZM61.3975 50.3932V49.8044H62.2932V50.3932H61.3975ZM56.6949 50.3932C56.6617 50.3932 56.6341 50.3877 56.612 50.3767C56.5898 50.3601 56.5733 50.3407 56.5622 50.3186C56.5511 50.291 56.5429 50.2578 56.5373 50.2191C56.5318 50.1804 56.529 50.1389 56.529 50.0947C56.529 50.0339 56.5346 49.9841 56.5456 49.9454C56.5511 49.9011 56.5677 49.868 56.5954 49.8459C56.6175 49.8182 56.6507 49.8044 56.6949 49.8044V50.3932ZM56.6949 50.3932V49.8044H61.2316L60.7506 50.1444V48.3613C60.7506 47.9742 60.7063 47.6701 60.6179 47.4489C60.5294 47.2278 60.3774 47.0702 60.1617 46.9762C59.9516 46.8822 59.6641 46.8352 59.2992 46.8352C59.0669 46.8352 58.8347 46.8518 58.6025 46.885C58.3758 46.9181 58.1989 46.9624 58.0717 47.0177L58.4615 46.6196C58.4283 46.7523 58.3951 46.9209 58.362 47.1255C58.3288 47.3245 58.3011 47.5402 58.279 47.7724C58.2569 48.0046 58.2458 48.2369 58.2458 48.4691C58.2458 48.7068 58.2569 48.9391 58.279 49.1658C58.3011 49.3925 58.326 49.5887 58.3537 49.7546C58.3813 49.9205 58.4034 50.0366 58.42 50.103L57.8063 50.2771C57.7842 50.2053 57.7565 50.0808 57.7233 49.9039C57.6957 49.727 57.668 49.5141 57.6404 49.2653C57.6183 49.0165 57.6072 48.7511 57.6072 48.4691C57.6072 48.1982 57.6183 47.9355 57.6404 47.6812C57.668 47.4213 57.6985 47.1863 57.7316 46.9762C57.7703 46.7661 57.8063 46.5974 57.8395 46.4703C57.9611 46.4205 58.1546 46.3707 58.42 46.321C58.6854 46.2712 58.9785 46.2463 59.2992 46.2463C59.7636 46.2463 60.1507 46.3155 60.4603 46.4537C60.7755 46.5919 61.0105 46.8158 61.1653 47.1255C61.3201 47.4296 61.3975 47.8415 61.3975 48.3613V50.3932H56.6949ZM62.2932 50.3932V49.8044C62.3264 49.8044 62.3541 49.8127 62.3762 49.8293C62.3983 49.8403 62.4149 49.8597 62.4259 49.8873C62.437 49.9094 62.4453 49.9399 62.4508 49.9786C62.4563 50.0117 62.4591 50.0504 62.4591 50.0947C62.4591 50.1389 62.4563 50.1804 62.4508 50.2191C62.4453 50.2578 62.437 50.291 62.4259 50.3186C62.4149 50.3407 62.3983 50.3601 62.3762 50.3767C62.3541 50.3877 62.3264 50.3932 62.2932 50.3932ZM63.2952 50.3932V44.4466H63.9421V50.3932H63.2952ZM62.2916 50.3932V49.8044H63.2952V50.3932H62.2916ZM62.2916 50.3932C62.2584 50.3932 62.2308 50.3877 62.2087 50.3767C62.1866 50.3601 62.17 50.3407 62.1589 50.3186C62.1479 50.291 62.1396 50.2578 62.134 50.2191C62.1285 50.1804 62.1257 50.1389 62.1257 50.0947C62.1257 50.0339 62.1313 49.9841 62.1423 49.9454C62.1479 49.9011 62.1644 49.868 62.1921 49.8459C62.2142 49.8182 62.2474 49.8044 62.2916 49.8044V50.3932ZM65.3719 50.3932V44.4466H66.0105V50.3932H65.3719ZM71.4204 50.3932C70.873 50.3932 70.4168 50.3297 70.0519 50.2025C69.687 50.0753 69.4133 49.8818 69.2308 49.6219C69.0484 49.3621 68.9571 49.0303 68.9571 48.6267C68.9571 48.494 68.9654 48.3502 68.982 48.1954C69.0041 48.0406 69.029 47.8913 69.0566 47.7475C69.0843 47.5982 69.1092 47.4711 69.1313 47.366C69.1534 47.2554 69.1672 47.1808 69.1728 47.1421L69.8031 47.2582C69.7865 47.3467 69.7616 47.4683 69.7284 47.6231C69.7008 47.7779 69.6732 47.9438 69.6455 48.1207C69.6179 48.2977 69.604 48.4663 69.604 48.6267C69.604 48.8312 69.6344 49.0082 69.6953 49.1575C69.7616 49.3068 69.8639 49.4312 70.0021 49.5307C70.1459 49.6247 70.3339 49.6938 70.5661 49.738C70.7983 49.7823 71.0831 49.8044 71.4204 49.8044H73.8588V46.2463H74.5057V50.3932H71.4204ZM71.437 45.2096V44.5046H72.0341V45.2096H71.437ZM70.8398 46.3044V45.558H71.4867V46.3044H70.8398ZM71.9761 46.3044V45.558H72.623V46.3044H71.9761ZM76.6126 50.3932V49.8044H77.6245V50.3932H76.6126ZM75.974 50.3932V44.4466H76.6126V50.3932H75.974ZM77.6245 50.3932V49.8044C77.6577 49.8044 77.6853 49.8127 77.7074 49.8293C77.7295 49.8403 77.7461 49.8597 77.7572 49.8873C77.7682 49.9094 77.7765 49.9399 77.7821 49.9786C77.7876 50.0117 77.7904 50.0504 77.7904 50.0947C77.7904 50.1389 77.7876 50.1804 77.7821 50.2191C77.7765 50.2578 77.7682 50.291 77.7572 50.3186C77.7461 50.3407 77.7295 50.3601 77.7074 50.3767C77.6853 50.3877 77.6577 50.3932 77.6245 50.3932ZM77.6238 50.3932V49.8044H78.8182L78.5196 50.0449V46.2463H79.1665V50.3932H77.6238ZM77.6238 50.3932C77.5907 50.3932 77.563 50.3877 77.5409 50.3767C77.5188 50.3601 77.5022 50.3407 77.4911 50.3186C77.4801 50.291 77.4718 50.2578 77.4663 50.2191C77.4607 50.1804 77.458 50.1389 77.458 50.0947C77.458 50.0339 77.4635 49.9841 77.4746 49.9454C77.4801 49.9011 77.4967 49.868 77.5243 49.8459C77.5464 49.8182 77.5796 49.8044 77.6238 49.8044V50.3932ZM78.5445 44.4051V43.7001H79.1416V44.4051H78.5445ZM77.9473 45.4999V44.7535H78.5942V45.4999H77.9473ZM79.0836 45.4999V44.7535H79.7305V45.4999H79.0836ZM80.1667 50.3932V49.8044H84.2224L83.8575 50.1776V44.4466H84.5044V50.3932H80.1667ZM81.4937 49.8044V45.6243H82.1324V49.8044H81.4937ZM81.4274 45.0686C81.3389 44.958 81.2698 44.8502 81.2201 44.7452C81.1758 44.6401 81.1537 44.5295 81.1537 44.4134C81.1537 44.2531 81.1924 44.1093 81.2698 43.9821C81.3528 43.855 81.4606 43.7554 81.5933 43.6836C81.726 43.6117 81.8697 43.5757 82.0246 43.5757C82.113 43.5757 82.2015 43.5896 82.29 43.6172C82.3784 43.6393 82.4558 43.6725 82.5222 43.7167L82.3065 44.0899C82.2623 44.0623 82.2181 44.0457 82.1738 44.0402C82.1351 44.0291 82.0937 44.0236 82.0494 44.0236C81.9223 44.0236 81.82 44.0595 81.7426 44.1314C81.6707 44.2033 81.6347 44.2973 81.6347 44.4134C81.6347 44.4853 81.6486 44.5544 81.6762 44.6208C81.7094 44.6871 81.7564 44.759 81.8172 44.8364L81.4274 45.0686ZM80.9961 45.0686V44.629H82.63V45.0686H80.9961ZM85.9687 50.3932V44.4466H86.6073V50.3932H85.9687ZM90.6073 50.2771C90.3861 50.0283 90.2203 49.7795 90.1097 49.5307C90.0046 49.2819 89.9521 49.0165 89.9521 48.7345C89.9521 48.458 90.0018 48.2037 90.1014 47.9715C90.2009 47.7392 90.3391 47.5402 90.5161 47.3743C90.693 47.2029 90.8976 47.0702 91.1298 46.9762C91.3676 46.8822 91.6219 46.8352 91.8928 46.8352C92.0974 46.8352 92.2937 46.8628 92.4817 46.9181C92.6752 46.9734 92.8494 47.0508 93.0042 47.1504L92.6476 47.6397C92.5315 47.5623 92.4126 47.507 92.2909 47.4738C92.1748 47.4407 92.0449 47.4241 91.9011 47.4241C91.6468 47.4241 91.4201 47.4821 91.221 47.5982C91.0275 47.7088 90.8727 47.8636 90.7566 48.0627C90.646 48.2562 90.5907 48.4801 90.5907 48.7345C90.5907 48.9391 90.6294 49.1354 90.7068 49.3233C90.7898 49.5058 90.9169 49.6938 91.0883 49.8873L90.6073 50.2771ZM89.554 50.3932V49.8044H93.394V50.3932H89.554ZM94.5298 50.3932V44.4466H95.1684V50.3932H94.5298ZM104.537 50.3932V49.8044H105.441V50.3932H104.537ZM105.441 50.3932V49.8044C105.474 49.8044 105.502 49.8127 105.524 49.8293C105.546 49.8403 105.562 49.8597 105.573 49.8873C105.585 49.9094 105.593 49.9399 105.598 49.9786C105.604 50.0117 105.607 50.0504 105.607 50.0947C105.607 50.1389 105.604 50.1804 105.598 50.2191C105.593 50.2578 105.585 50.291 105.573 50.3186C105.562 50.3407 105.546 50.3601 105.524 50.3767C105.502 50.3877 105.474 50.3932 105.441 50.3932ZM96.0356 52.2262C95.9637 52.2262 95.8891 52.2207 95.8117 52.2096C95.7287 52.2041 95.6486 52.1985 95.5711 52.193L95.6458 51.6041C95.7232 51.6097 95.7951 51.6152 95.8614 51.6207C95.9278 51.6318 95.9858 51.6373 96.0356 51.6373C96.2955 51.6373 96.5056 51.5378 96.6659 51.3387C96.8263 51.1452 96.9064 50.8743 96.9064 50.526V46.2463H97.5534V50.526C97.5534 50.8632 97.487 51.159 97.3543 51.4134C97.2271 51.6733 97.0502 51.8723 96.8235 52.0105C96.5968 52.1543 96.3342 52.2262 96.0356 52.2262ZM102.671 50.3932C102.483 50.3932 102.297 50.3573 102.115 50.2854C101.938 50.2136 101.764 50.1002 101.592 49.9454L102.024 49.5058C102.145 49.6109 102.256 49.6883 102.355 49.738C102.461 49.7823 102.566 49.8044 102.671 49.8044H104.147L103.898 50.0698V48.0876C103.898 47.988 103.887 47.847 103.865 47.6646C103.848 47.4821 103.821 47.2775 103.782 47.0508C103.749 46.8186 103.707 46.5864 103.658 46.3542L104.288 46.2463C104.327 46.4399 104.365 46.6555 104.404 46.8933C104.443 47.131 104.473 47.3577 104.495 47.5734C104.523 47.7835 104.537 47.9549 104.537 48.0876V50.3932H102.671ZM97.5534 47.6563V47.0591H99.3448V47.6563H97.5534ZM99.3448 50.3932V46.2463H99.9917V50.3932H99.3448ZM99.9917 50.3932V49.8044H100.921C101.109 49.8044 101.252 49.7767 101.352 49.7215C101.451 49.6662 101.521 49.5556 101.559 49.3897C101.598 49.2238 101.617 48.9805 101.617 48.6598V46.661H102.264V48.6598C102.264 49.0911 102.217 49.4339 102.123 49.6883C102.035 49.9426 101.891 50.1251 101.692 50.2357C101.498 50.3407 101.241 50.3932 100.921 50.3932H99.9917ZM101.642 44.4051V43.7001H102.239V44.4051H101.642ZM101.045 45.4999V44.7535H101.692V45.4999H101.045ZM102.181 45.4999V44.7535H102.828V45.4999H102.181ZM106.441 50.3932V44.4466H107.088V50.3932H106.441ZM105.437 50.3932V49.8044H106.441V50.3932H105.437ZM105.437 50.3932C105.404 50.3932 105.376 50.3877 105.354 50.3767C105.332 50.3601 105.316 50.3407 105.305 50.3186C105.294 50.291 105.285 50.2578 105.28 50.2191C105.274 50.1804 105.271 50.1389 105.271 50.0947C105.271 50.0339 105.277 49.9841 105.288 49.9454C105.294 49.9011 105.31 49.868 105.338 49.8459C105.36 49.8182 105.393 49.8044 105.437 49.8044V50.3932Z" fill="#0C241B"/>
</svg>
