<svg width="27" height="27" viewBox="0 0 27 27" fill="none" xmlns="http://www.w3.org/2000/svg">
<path d="M13.3334 0C20.6974 0 26.6667 5.96933 26.6667 13.3333C26.6667 20.6973 20.6974 26.6667 13.3334 26.6667C10.977 26.6707 8.66213 26.0471 6.62669 24.86L0.00535394 26.6667L1.80802 20.0427C0.619965 18.0066 -0.00410884 15.6907 2.03582e-05 13.3333C2.03582e-05 5.96933 5.96936 0 13.3334 0ZM8.78935 7.06667L8.52269 7.07733C8.35028 7.08921 8.18182 7.1345 8.02669 7.21067C7.88212 7.29268 7.7501 7.39506 7.63469 7.51467C7.47469 7.66533 7.38402 7.796 7.28669 7.92267C6.79352 8.56387 6.52798 9.35108 6.53202 10.16C6.53469 10.8133 6.70535 11.4493 6.97202 12.044C7.51735 13.2467 8.41469 14.52 9.59869 15.7C9.88402 15.984 10.164 16.2693 10.4654 16.5347C11.9366 17.8299 13.6897 18.764 15.5854 19.2627L16.3427 19.3787C16.5894 19.392 16.836 19.3733 17.084 19.3613C17.4723 19.3409 17.8513 19.2357 18.1947 19.0533C18.3691 18.9631 18.5395 18.8653 18.7054 18.76C18.7054 18.76 18.7618 18.7218 18.872 18.64C19.052 18.5067 19.1627 18.412 19.312 18.256C19.424 18.1404 19.5174 18.0062 19.592 17.8533C19.696 17.636 19.8 17.2213 19.8427 16.876C19.8747 16.612 19.8654 16.468 19.8614 16.3787C19.856 16.236 19.7374 16.088 19.608 16.0253L18.832 15.6773C18.832 15.6773 17.672 15.172 16.9627 14.8493C16.8884 14.817 16.8089 14.7985 16.728 14.7947C16.6368 14.7851 16.5446 14.7953 16.4576 14.8245C16.3706 14.8537 16.291 14.9013 16.224 14.964C16.2174 14.9613 16.128 15.0373 15.164 16.2053C15.1087 16.2797 15.0325 16.3359 14.9451 16.3667C14.8577 16.3976 14.7631 16.4018 14.6734 16.3787C14.5865 16.3555 14.5013 16.3261 14.4187 16.2907C14.2534 16.2213 14.196 16.1947 14.0827 16.1467C13.3172 15.8132 12.6086 15.362 11.9827 14.8093C11.8147 14.6627 11.6587 14.5027 11.4987 14.348C10.9742 13.8456 10.517 13.2773 10.1387 12.6573L10.06 12.5307C10.0044 12.4451 9.95874 12.3534 9.92402 12.2573C9.87335 12.0613 10.0054 11.904 10.0054 11.904C10.0054 11.904 10.3294 11.5493 10.48 11.3573C10.6267 11.1707 10.7507 10.9893 10.8307 10.86C10.988 10.6067 11.0374 10.3467 10.9547 10.1453C10.5814 9.23333 10.1956 8.32622 9.79735 7.424C9.71869 7.24533 9.48535 7.11733 9.27335 7.092C9.20135 7.08311 9.12935 7.076 9.05735 7.07067C8.87833 7.0604 8.69881 7.06218 8.52002 7.076L8.78935 7.06667Z" fill="#25D366"/>
</svg>
